<?xml version="1.0" encoding="UTF-8"?>
<!DOCTYPE svg PUBLIC "-//W3C//DTD SVG 1.1//EN" "http://www.w3.org/Graphics/SVG/1.1/DTD/svg11.dtd">
<svg xmlns="http://www.w3.org/2000/svg" version="1.1" width="28px" height="28px" style="shape-rendering:geometricPrecision; text-rendering:geometricPrecision; image-rendering:optimizeQuality; fill-rule:evenodd; clip-rule:evenodd" xmlns:xlink="http://www.w3.org/1999/xlink">
<g><path style="opacity:1" fill="#fcfcfe" d="M -0.5,-0.5 C 8.83333,-0.5 18.1667,-0.5 27.5,-0.5C 27.5,8.83333 27.5,18.1667 27.5,27.5C 18.1667,27.5 8.83333,27.5 -0.5,27.5C -0.5,18.1667 -0.5,8.83333 -0.5,-0.5 Z"/></g>
<g><path style="opacity:1" fill="#fafafd" d="M 9.5,20.5 C 8.83333,19.1667 7.83333,18.1667 6.5,17.5C 6.5,14.1667 6.5,10.8333 6.5,7.5C 7.93047,7.57918 9.26381,7.24585 10.5,6.5C 10.8333,8.83333 11.1667,11.1667 11.5,13.5C 11.4714,16.2695 10.8048,18.6028 9.5,20.5 Z"/></g>
<g><path style="opacity:1" fill="#7e8acd" d="M 13.5,7.5 C 13.5,11.8333 13.5,16.1667 13.5,20.5C 13.6309,21.3764 13.2975,22.0431 12.5,22.5C 11.2613,22.0576 10.2613,21.3909 9.5,20.5C 10.8048,18.6028 11.4714,16.2695 11.5,13.5C 11.1667,11.1667 10.8333,8.83333 10.5,6.5C 9.26381,7.24585 7.93047,7.57918 6.5,7.5C 8.22003,6.13591 10.22,5.13591 12.5,4.5C 13.3857,5.32496 13.719,6.32496 13.5,7.5 Z"/></g>
<g><path style="opacity:1" fill="#1b3fb3" d="M 17.5,11.5 C 17.5,12.1667 17.5,12.8333 17.5,13.5C 17.5,14.1667 17.5,14.8333 17.5,15.5C 17.8333,16.1667 18.1667,16.8333 18.5,17.5C 16.8506,18.4728 15.184,19.4728 13.5,20.5C 13.5,16.1667 13.5,11.8333 13.5,7.5C 14.2216,7.08247 14.7216,6.4158 15,5.5C 16.1097,7.39688 16.2764,9.23021 15.5,11C 16.0944,11.4643 16.7611,11.631 17.5,11.5 Z"/></g>
<g><path style="opacity:1" fill="#727fc9" d="M 6.5,7.5 C 6.5,10.8333 6.5,14.1667 6.5,17.5C 5.02769,15.8825 4.36103,13.8825 4.5,11.5C 4.58544,9.66723 5.2521,8.3339 6.5,7.5 Z"/></g>
<g><path style="opacity:1" fill="#6b6ec6" d="M 17.5,11.5 C 17.9867,10.5266 18.4867,9.52656 19,8.5C 19.7252,10.1575 19.2252,11.1575 17.5,11.5 Z"/></g>
<g><path style="opacity:1" fill="#8a91d0" d="M 17.5,13.5 C 19.0898,13.6282 20.4231,14.2949 21.5,15.5C 20.4425,15.9059 19.1092,15.9059 17.5,15.5C 17.5,14.8333 17.5,14.1667 17.5,13.5 Z"/></g>
<g><path style="opacity:1" fill="#5f57bd" d="M 6.5,17.5 C 7.83333,18.1667 8.83333,19.1667 9.5,20.5C 7.5,20.5 6.5,19.5 6.5,17.5 Z"/></g>
<g><path style="opacity:1" fill="#7678c9" d="M 18.5,17.5 C 20.0847,18.0024 20.5847,19.0024 20,20.5C 18.9614,19.7562 18.4614,18.7562 18.5,17.5 Z"/></g>
</svg>
